<svg width="30" height="1280" viewBox="690 0 30 1280" xmlns="http://www.w3.org/2000/svg" xmlns:xlink="http://www.w3.org/1999/xlink" xml:space="preserve" overflow="hidden">
<g transform="matrix(0 1 -1 0 720 0)"><path d="M401.92
14.8852 412.447 25.4116 416.805 29.7703 416.805 14.8852 416.805 0 387.035 0
391.394 4.35868 401.92 14.8852Z" fill="#0C2340"
transform="matrix(1 0 0 1.00226 1.194e-13 690.065)"/><path d="M425.489
8.75937 431.628 14.9508 442.104 25.5219 446.318 29.7729 446.347 29.8018 446.578
29.8018 446.578 29.7729 446.578 29.7703 446.578 14.8852 446.578 0 416.805 0
421.146 4.37706 425.489 8.75937Z" fill="#0C2340"
transform="matrix(1 0 0 1.00226 1.194e-13 690.065)"/><path
d="M178.63 29.7703 178.63 29.7729 178.632 29.7729 193.518 29.7729 208.403
29.7729 208.403 14.8852 208.403 0 178.63 0 178.63 14.8852 178.63 29.7703Z"
fill="#0C2340" transform="matrix(1 0 0 1.00226 1.194e-13
690.065)"/><path d="M127.806 8.71999 133.974 14.8878 144.498
25.4116 148.857 29.7729 148.859 29.7729 148.859 29.7703 148.859 14.8852 148.859
0 119.086 0 123.448 4.36131 127.806 8.71999Z" fill="#0C2340"
transform="matrix(1 0 0 1.00226 1.194e-13 690.065)"/><path
d="M229.456 8.71999C232.843 12.1072 235.419 16.3083 236.863 21.0057
237.716 23.7758 238.176 26.7192 238.176 29.7703L238.176 0 208.403 0C211.454 0
214.397 0.459499 217.167 1.31286 221.865 2.75437 226.066 5.33019 229.456
8.71999Z" fill="#0C2340" transform="matrix(1 0 0 1.00226
1.194e-13 690.065)"/><path d="M446.578 29.7703 446.578 29.7729
461.463 29.7729 476.349 29.7729 476.349 14.8852 476.349 0 461.463 0 446.578 0
446.578 14.8852 446.578 29.7703Z" fill="#DA291C"
transform="matrix(1 0 0 1.00226 1.194e-13 690.065)"/><path
d="M416.805 29.7703 416.805 29.7729 416.808 29.7729 431.69 29.7729 446.318
29.7729 442.104 25.5219 431.628 14.9508 425.489 8.75937 421.146 4.37706 416.805
0 416.805 14.8852 416.805 29.7703Z" fill="#FFFFFF"
transform="matrix(1 0 0 1.00226 1.194e-13 690.065)"/><path
d="M387.035 29.7703 387.035 29.7729 401.92 29.7729 416.805 29.7729 416.805
29.7703 412.447 25.4116 401.92 14.8852 391.394 4.35868 387.035 0 387.035
14.8852 387.035 29.7703Z" fill="#DA291C"
transform="matrix(1 0 0 1.00226 1.194e-13 690.065)"/><path
d="M357.262 29.7729 357.291 29.8018 387.035 29.8018 387.035 29.7729
387.035 29.7703 387.035 14.8852 387.035 0 372.147 0 357.262 0 357.262 14.8852
357.262 29.7729Z" fill="#546579" transform="matrix(1 0 0
1.00226 1.194e-13 690.065)"/><path d="M297.719 29.7703 297.719
29.7729 312.604 29.7729 327.489 29.7729 327.492 29.7729 342.377 29.7729 357.262
29.7729 357.262 14.8852 357.262 0 297.719 0 297.719 14.8852 297.719
29.7703Z" fill="#0C2340" transform="matrix(1 0 0 1.00226
1.194e-13 690.065)"/><path d="M288.999 8.71999C292.386 12.1072
294.962 16.3083 296.406 21.0057 297.259 23.7758 297.719 26.7192 297.719 29.7703L297.719
0 267.946 0C270.997 0 273.94 0.459499 276.713 1.31286 281.411 2.757 285.612
5.33282 288.999 8.71999Z" fill="#9DA7B3"
transform="matrix(1 0 0 1.00226 1.194e-13 690.065)"/><path
d="M267.946 29.7703 267.946 29.7703 267.946 29.8018 297.719
29.8018C297.719 29.8018 297.719 29.7834 297.719 29.7729L297.719 29.7729C297.719
26.7192 297.259 23.7758 296.406 21.0057 294.962 16.3083 292.386 12.1072 288.999
8.71999 285.612 5.33282 281.411 2.757 276.713 1.31286 273.94 0.459499 270.997 0
267.946 0L267.946 29.7703Z" fill="#DADEE2" transform="matrix(1
0 0 1.00226 1.194e-13 690.065)"/><path d="M238.176 29.7703
238.176 29.7729 253.061 29.7729 267.946 29.7729 267.946 29.7703 267.946 14.8852
267.946 0 253.061 0 238.176 0 238.176 14.8852 238.176 29.7703Z" fill="#DA291C"
transform="matrix(1 0 0 1.00226 1.194e-13 690.065)"/><path
d="M208.403 29.7729 238.176 29.7729C238.176 26.7192 237.716 23.7758
236.863 21.0057 235.419 16.3083 232.843 12.1072 229.456 8.71999 226.066 5.33019
221.865 2.75437 217.167 1.31286 214.397 0.459499 211.454 0 208.403 0L208.403
29.7729Z" fill="#546579" transform="matrix(1 0 0 1.00226
1.194e-13 690.065)"/><path d="M163.745 14.8852 174.271 25.4116
178.63 29.7703 178.63 14.8852 178.63 0 163.745 0 148.859 0 153.218 4.35868
163.745 14.8852Z" fill="#9DA7B3" transform="matrix(1 0 0
1.00226 1.194e-13 690.065)"/><path d="M148.859 29.7703 148.859
29.7729 163.745 29.7729 178.63 29.7729 178.63 29.7703 174.271 25.4116 163.745
14.8852 153.218 4.35868 148.859 0 148.859 14.8852 148.859 29.7703Z"
fill="#DA291C" transform="matrix(1 0 0 1.00226 1.194e-13
690.065)"/><path d="M119.086 29.7703 119.086 29.7703 119.086
29.8018 133.084 29.8018C133.378 29.7834 133.675 29.7729 133.974 29.7729 134.274
29.7729 134.57 29.7834 134.864 29.8018L148.828 29.8018 148.857 29.7729 144.498
25.4116 133.974 14.8878 127.806 8.71999 123.448 4.36131 119.086 0 119.086
29.7703Z" fill="#546579" transform="matrix(1 0 0 1.00226
1.194e-13 690.065)"/><path d="M110.367 8.71999 104.201 14.8852
93.6749 25.4116 89.3162 29.7703 89.3162 29.7729 89.3451 29.8018 119.086 29.8018
119.086 29.7729 119.086 29.7703 119.086 14.8852 119.086 0 114.728 4.35868
110.367 8.71999Z" fill="#9DA7B3" transform="matrix(1 0 0
1.00226 1.194e-13 690.065)"/><path d="M89.3162 29.7703 93.6749
25.4116 104.201 14.8852 110.367 8.71999 114.728 4.35868 119.086 0 104.201 0
89.3162 0 89.3162 14.8852 89.3162 29.7703Z" fill="#DADEE2"
transform="matrix(1 0 0 1.00226 1.194e-13 690.065)"/><path
d="M59.5432 29.7703 59.5432 29.7729 59.5459 29.7729 74.4284 29.7729
89.3136 29.7729 89.3162 29.7729 89.3162 29.7703 89.3162 14.8852 89.3162 0
59.5432 0 59.5432 14.8852 59.5432 29.7703Z" fill="#0C2340"
transform="matrix(1 0 0 1.00226 1.194e-13 690.065)"/><path
d="M50.86 8.75937C54.2314 12.1413 56.7915 16.3267 58.2304 21.0057 59.0837
23.7758 59.5432 26.7192 59.5432 29.7703L59.5432 0 29.7729 0C32.824 0 35.7674
0.459499 38.5376 1.31286 43.2507 2.76225 47.4676 5.3512 50.86 8.75937Z"
fill="#546579" transform="matrix(1 0 0 1.00226 1.194e-13
690.065)"/><path d="M29.7729 29.7729 29.7729 14.8852 29.7729 0
14.8852 0 0 0 0 14.8852 0 29.7729 14.8852 29.7729 29.7729 29.7729Z"
fill="#DA291C" transform="matrix(1 0 0 1.00226 1.194e-13
690.065)"/><path d="M29.7729 29.7729 30.0303 29.7729 30.0014
29.8018 59.5144 29.8018 59.5432 29.7729 59.5432 29.7729C59.5432 26.7192 59.0837
23.7758 58.2304 21.0057 56.7915 16.3267 54.2314 12.1413 50.86 8.75937 47.4676
5.3512 43.2507 2.76225 38.5376 1.31286 35.7674 0.459499 32.824 0 29.7729
0L29.7729 29.7729Z" fill="#9DA7B3" transform="matrix(1 0 0
1.00226 1.194e-13 690.065)"/><path d="M714.48 29.8018 714.48
29.7729 714.48 29.7703 714.477 29.7703 699.592 29.7703 684.707 29.7703 684.738
29.8018 714.48 29.8018Z" fill="#0C2340" transform="matrix(1
0 0 1.00226 1.194e-13 690.065)"/><path d="M765.303
21.0503C761.916 24.4375 757.715 27.0133 753.017 28.4575 750.244 29.3108 747.301
29.7703 744.25 29.7703L803.793 29.7703C800.742 29.7703 797.799 29.3108 795.029
28.4575 790.331 27.0159 786.13 24.4401 782.743 21.0503 779.353 17.6605 776.777
13.4594 775.336 8.76462 774.485 6.00238 774.026 3.06946 774.023
0.0288828L774.023 0.0288828C774.02 3.06946 773.561 6.00238 772.71 8.76462
771.268 13.4594 768.693 17.6605 765.303 21.0503Z" fill="#0C2340"
transform="matrix(1 0 0 1.00226 1.194e-13 690.065)"/><path
d="M714.508 0.0288828 714.48 0 714.48 0.0288828 714.508 0.0288828Z"
fill="#0C2340" transform="matrix(1 0 0 1.00226 1.194e-13
690.065)"/><path d="M714.48 29.7703 729.365 29.7703 744.25
29.7703 739.891 25.4116 729.365 14.8852 718.838 4.35868 714.508 0.0288828
714.48 0.0288828 714.48 14.8852 714.48 29.7703Z" fill="#0C2340"
transform="matrix(1 0 0 1.00226 1.194e-13 690.065)"/><path
d="M863.339 29.8018 863.339 29.7729 863.339 29.7703 863.336 29.7703
848.451 29.7703 833.566 29.7703 833.566 29.8018 863.339 29.8018Z"
fill="#0C2340" transform="matrix(1 0 0 1.00226 1.194e-13
690.065)"/><path d="M625.163 29.8018 625.163 29.7703 610.278
29.7703 595.391 29.7703 580.505 29.7703 565.62 29.7703 565.652 29.8018 625.163
29.8018Z" fill="#0C2340" transform="matrix(1 0 0 1.00226
1.194e-13 690.065)"/><path d="M565.589 29.8018 565.62 29.8018
565.62 29.7703 565.589 29.8018Z" fill="#0C2340"
transform="matrix(1 0 0 1.00226 1.194e-13 690.065)"/><path
d="M893.109 29.7703 893.109 29.8018 921.58 29.8018C922.01 29.7834 922.444
29.7703 922.88 29.7703L893.109 29.7703Z" fill="#0C2340"
transform="matrix(1 0 0 1.00226 1.194e-13 690.065)"/><path
d="M893.109 0 878.224 0 863.339 0 863.339 0.0288828 893.109 0.0288828
893.109 0Z" fill="#0C2340" transform="matrix(1 0 0 1.00226
1.194e-13 690.065)"/><path d="M863.339 29.7703 878.224 29.7703
893.109 29.7703 893.109 14.8852 893.109 0.0288828 863.339 0.0288828 863.339
14.8852 863.339 29.7703Z" fill="#0C2340"
transform="matrix(1 0 0 1.00226 1.194e-13 690.065)"/><path
d="M506.077 29.7729 506.077 29.7703 506.074 29.7703 491.189 29.7703 476.824
29.7703 476.304 29.7703 476.304 29.8018 506.048 29.8018 506.077 29.7729Z" fill="#0C2340"
transform="matrix(1 0 0 1.00226 1.194e-13 690.065)"/><path
d="M506.334 0 506.077 0 506.077 0.0288828 506.305 0.0288828 506.334
0Z" fill="#0C2340" transform="matrix(1 0 0 1.00226
1.194e-13 690.065)"/><path d="M506.206 0.12866 506.305
0.0288828 506.077 0.0288828 506.077 0.259945 506.206 0.12866Z"
fill="#0C2340" transform="matrix(1 0 0 1.00226 1.194e-13
690.065)"/><path d="M803.793 29.7703 803.796 29.7703 803.796
29.7729 803.793 29.7729Z" fill="#0C2340"
transform="matrix(1 0 0 1.00226 1.194e-13 690.065)"/><path
d="M789.827 29.8018C789.522 29.7834 789.218 29.7703 788.908 29.7703
788.598 29.7703 788.299 29.7834 787.997 29.8018L789.827 29.8018Z"
fill="#0C2340" transform="matrix(1 0 0 1.00226 1.194e-13
690.065)"/><path d="M654.905 29.8018 654.934 29.7729 654.934
29.8018 683.407 29.8018C683.838 29.7834 684.271 29.7703 684.707 29.7703L625.163
29.7703 625.195 29.8018 654.907 29.8018Z" fill="#0C2340"
transform="matrix(1 0 0 1.00226 1.194e-13 690.065)"/><path
d="M952.653 14.8852 952.653 29.7703 922.882 29.7703C923.318 29.7703
923.749 29.7834 924.182 29.8018L952.655 29.8018 952.655 0.0288828 952.655
0.0288828 952.655 14.8852Z" fill="#0C2340"
transform="matrix(1 0 0 1.00226 1.194e-13 690.065)"/><path
d="M922.882 0.262571 922.882 0.0288828 922.651 0.0288828 922.751 0.12866
922.882 0.262571Z" fill="#0C2340" transform="matrix(1 0 0
1.00226 1.194e-13 690.065)"/><path d="M943.707 21.2709C940.359
24.553 936.239 27.0474 931.647 28.4575 928.877 29.3108 925.933 29.7703 922.882
29.7703L952.133 29.7703 948.05 25.6506 943.707 21.2709Z"
fill="#FFFFFF" transform="matrix(1 0 0 1.00226 1.194e-13
690.065)"/><path d="M943.707 21.2709 937.57 15.0821 927.094
4.51097 922.882 0.262571 922.751 0.12866 922.651 0.0288828 893.109
0.0288828C893.112 3.06946 893.571 6.00238 894.422 8.76462 895.864 13.4594
898.44 17.6605 901.829 21.0503 905.219 24.4401 909.418 27.0133 914.115 28.4575
916.885 29.3108 919.829 29.7703 922.88 29.7703L922.882 29.7703C925.933 29.7703
928.877 29.3108 931.647 28.4575 936.239 27.0474 940.359 24.553 943.707
21.2709Z" fill="#DADEE2" transform="matrix(1 0 0 1.00226
1.194e-13 690.065)"/><path d="M922.651 0.0288828 922.622 0
893.109 0C893.109 0 893.109 0.01838 893.109 0.0288828L922.651 0.0288828Z"
fill="#DADEE2" transform="matrix(1 0 0 1.00226 1.194e-13
690.065)"/><path d="M922.882 0 922.882 0.0288828 952.653
0.0288828 952.653 0 937.767 0 922.882 0Z" fill="#9DA7B3"
transform="matrix(1 0 0 1.00226 1.194e-13 690.065)"/><path
d="M922.882 0.262571 927.094 4.51097 937.57 15.0821 943.707 21.2709 948.05
25.6506 952.133 29.7703 952.653 29.7703 952.653 14.8852 952.653 0.0288828
922.882 0.0288828 922.882 0.262571Z" fill="#9DA7B3"
transform="matrix(1 0 0 1.00226 1.194e-13 690.065)"/><path
d="M921.58 29.8018 924.179 29.8018C923.749 29.7834 923.315 29.7703 922.88
29.7703L922.877 29.7703C922.441 29.7703 922.01 29.7834 921.577 29.8018Z"
fill="#546579" transform="matrix(1 0 0 1.00226 1.194e-13
690.065)"/><path d="M893.109 14.8852 893.109 29.7703 922.88
29.7703C919.829 29.7703 916.885 29.3108 914.115 28.4575 909.418 27.0133 905.216
24.4375 901.829 21.0503 898.442 17.6632 895.864 13.4594 894.422 8.76462 893.571
6.00238 893.112 3.06946 893.109 0.0288828L893.109 0.0288828 893.109
14.8852Z" fill="#FFFFFF" transform="matrix(1 0 0 1.00226
1.194e-13 690.065)"/><path d="M863.339 29.8018 893.109 29.8018
893.109 29.7703 878.224 29.7703 863.339 29.7703 863.339 29.7729 863.339
29.8018Z" fill="#DA291C" transform="matrix(1 0 0 1.00226
1.194e-13 690.065)"/><path d="M833.595 0.0288828 833.566 0
833.566 0.0288828 833.595 0.0288828Z" fill="#DADEE2"
transform="matrix(1 0 0 1.00226 1.194e-13 690.065)"/><path
d="M833.566 14.8852 833.566 29.7703 848.451 29.7703 863.336 29.7703
858.978 25.4116 848.451 14.8852 837.925 4.35868 833.595 0.0288828 833.566
0.0288828 833.566 14.8852Z" fill="#DADEE2"
transform="matrix(1 0 0 1.00226 1.194e-13 690.065)"/><path
d="M848.451 14.8852 858.978 25.4116 863.336 29.7703 863.339 29.7703
863.339 14.8852 863.339 0.0288828 833.595 0.0288828 837.925 4.35868 848.451
14.8852Z" fill="#546579" transform="matrix(1 0 0 1.00226
1.194e-13 690.065)"/><path d="M824.846 21.0503C821.459 24.4375
817.258 27.0133 812.56 28.4575 809.79 29.3108 806.847 29.7703 803.796
29.7703L833.566 29.7703 833.566 0.0288828 833.566 0.0288828C833.563 3.06946
833.104 6.00238 832.253 8.76462 830.812 13.4594 828.236 17.6605 824.846
21.0503Z" fill="#FFFFFF" transform="matrix(1 0 0 1.00226
1.194e-13 690.065)"/><path d="M833.566 0.0288828C833.566
0.0288828 833.566 0.0105028 833.566 0L833.537 0.0288828 833.566
0.0288828Z" fill="#DADEE2" transform="matrix(1 0 0 1.00226
1.194e-13 690.065)"/><path d="M818.681 14.8852 808.154 25.4116
803.796 29.7703C806.847 29.7703 809.79 29.3108 812.56 28.4575 817.258 27.0133
821.459 24.4375 824.846 21.0503 828.236 17.6605 830.812 13.4594 832.253 8.76462
833.104 6.00238 833.563 3.06946 833.566 0.0288828L833.537 0.0288828 829.207
4.35868 818.681 14.8852Z" fill="#DADEE2"
transform="matrix(1 0 0 1.00226 1.194e-13 690.065)"/><path
d="M833.566 29.8018 833.566 29.7703 803.796 29.7703C803.796 29.7703 803.793
29.7729 803.793 29.7729L803.793 29.7729C803.793 29.7729 788.908 29.7703 788.908
29.7703 789.218 29.7703 789.522 29.7834 789.827 29.8018L833.566 29.8018Z"
fill="#DA291C" transform="matrix(1 0 0 1.00226 1.194e-13
690.065)"/><path d="M833.537 0.0288828 833.566 0 774.023 0C774.023
0 774.023 0.01838 774.023 0.0288828L833.537 0.0288828Z"
fill="#546579" transform="matrix(1 0 0 1.00226 1.194e-13
690.065)"/><path d="M808.154 25.4116 818.681 14.8852 829.207
4.35868 833.537 0.0288828 774.023 0.0288828C774.026 3.06946 774.485 6.00238
775.336 8.76462 776.777 13.4594 779.353 17.6605 782.743 21.0503 786.13 24.4401
790.331 27.0159 795.029 28.4575 797.799 29.3108 800.742 29.7703 803.793
29.7703L803.796 29.7703 808.154 25.4116Z" fill="#546579"
transform="matrix(1 0 0 1.00226 1.194e-13 690.065)"/><path
d="M787.997 29.8018C788.299 29.7834 788.601 29.7703 788.908
29.7703L774.023 29.7703 774.023 29.8018 787.997 29.8018Z"
fill="#DA291C" transform="matrix(1 0 0 1.00226 1.194e-13
690.065)"/><path d="M774.023 29.8018 774.023 29.7703 773.991
29.8018 774.023 29.8018Z" fill="#9DA7B3" transform="matrix(1
0 0 1.00226 1.194e-13 690.065)"/><path d="M744.25
29.7703C747.301 29.7703 750.244 29.3108 753.017 28.4575 757.715 27.0133 761.916
24.4375 765.303 21.0503 768.693 17.6605 771.268 13.4594 772.71 8.76462 773.561
6.00238 774.02 3.06946 774.023 0.0288828L744.25 0.0288828 744.25 29.7703Z"
fill="#DADEE2" transform="matrix(1 0 0 1.00226 1.194e-13
690.065)"/><path d="M773.991 29.8018 774.023 29.7703 759.138
29.7703 744.25 29.7703 744.25 29.8018 773.991 29.8018Z"
fill="#DA291C" transform="matrix(1 0 0 1.00226 1.194e-13
690.065)"/><path d="M744.25 0.0288828 744.25 0 729.365 0 714.48
0 714.508 0.0288828 744.25 0.0288828Z" fill="#9DA7B3"
transform="matrix(1 0 0 1.00226 1.194e-13 690.065)"/><path
d="M718.838 4.35868 729.365 14.8852 739.891 25.4116 744.25 29.7703 744.25
14.8852 744.25 0.0288828 714.508 0.0288828 718.838 4.35868Z"
fill="#9DA7B3" transform="matrix(1 0 0 1.00226 1.194e-13
690.065)"/><path d="M714.48 29.7703 714.48 29.7729 714.48
29.8018 744.25 29.8018 744.25 29.7703 729.365 29.7703 714.48 29.7703Z"
fill="#FFFFFF" transform="matrix(1 0 0 1.00226 1.194e-13
690.065)"/><path d="M705.757 21.0503C702.37 24.4401 698.169
27.0159 693.471 28.4575 690.701 29.3108 687.758 29.7703 684.707 29.7703L714.48
29.7703 714.48 0.0288828 714.48 0.0288828C714.477 3.06946 714.017 6.00238
713.167 8.76462 711.723 13.462 709.147 17.6658 705.757 21.0503Z"
fill="#9DA7B3" transform="matrix(1 0 0 1.00226 1.194e-13
690.065)"/><path d="M714.48 0.0288828C714.48 0.0288828 714.48
0.0105028 714.48 0L684.707 0 684.707 0.0288828 714.48 0.0288828Z"
fill="#DA291C" transform="matrix(1 0 0 1.00226 1.194e-13
690.065)"/><path d="M684.707 29.7703C687.758 29.7703 690.701
29.3108 693.471 28.4575 698.169 27.0159 702.37 24.4401 705.757 21.0503 709.147
17.6658 711.723 13.462 713.167 8.76462 714.017 6.00238 714.477 3.06946 714.48
0.0288828L684.707 0.0288828 684.707 29.7703Z" fill="#DA291C"
transform="matrix(1 0 0 1.00226 1.194e-13 690.065)"/><path
d="M684.738 29.8018 684.707 29.7703 684.707 29.8018 684.738 29.8018Z"
fill="#DA291C" transform="matrix(1 0 0 1.00226 1.194e-13
690.065)"/><path d="M684.707 29.7703C684.271 29.7703 683.84
29.7834 683.407 29.8018L684.707 29.8018 684.707 29.7703Z"
fill="#546579" transform="matrix(1 0 0 1.00226 1.194e-13
690.065)"/><path d="M684.707 0.0288828 684.707 0 669.821 0
654.936 0 654.934 0 654.934 0.0288828 684.707 0.0288828Z"
fill="#9DA7B3" transform="matrix(1 0 0 1.00226 1.194e-13
690.065)"/><path d="M654.934 29.7703 654.936 29.7703 669.821
29.7703 684.707 29.7703 684.707 14.8852 684.707 0.0288828 654.934 0.0288828
654.934 14.8852 654.934 29.7703Z" fill="#9DA7B3"
transform="matrix(1 0 0 1.00226 1.194e-13 690.065)"/><path
d="M654.934 29.7729 654.905 29.8018 654.934 29.8018 654.934 29.7729Z"
fill="#FFFFFF" transform="matrix(1 0 0 1.00226 1.194e-13
690.065)"/><path d="M654.934 0.0288828 654.934 0 640.049 0
625.163 0 625.192 0.0288828 654.934 0.0288828Z" fill="#546579"
transform="matrix(1 0 0 1.00226 1.194e-13 690.065)"/><path
d="M640.049 14.8852 646.214 21.0503 650.575 25.4116 654.934 29.7703
654.934 14.8852 654.934 0.0288828 625.192 0.0288828 629.522 4.35868 640.049
14.8852Z" fill="#546579" transform="matrix(1 0 0 1.00226
1.194e-13 690.065)"/><path d="M625.195 29.8018 625.163 29.7703
625.163 29.8018 625.195 29.8018Z" fill="#546579"
transform="matrix(1 0 0 1.00226 1.194e-13 690.065)"/><path
d="M654.934 29.7703 650.575 25.4116 646.214 21.0503 640.049 14.8852
629.522 4.35868 625.192 0.0288828 625.163 0.0288828 625.163 14.8852 625.163
29.7703 640.049 29.7703 654.934 29.7703Z" fill="#9DA7B3"
transform="matrix(1 0 0 1.00226 1.194e-13 690.065)"/><path
d="M625.192 0.0288828 625.163 0 625.163 0.0288828 625.192 0.0288828Z"
fill="#9DA7B3" transform="matrix(1 0 0 1.00226 1.194e-13
690.065)"/><path d="M625.163 0 625.161 0 625.132 0.0288828
625.163 0.0288828 625.163 0Z" fill="#DA291C"
transform="matrix(1 0 0 1.00226 1.194e-13 690.065)"/><path
d="M620.802 4.35868 610.276 14.8852 604.11 21.0503 599.752 25.409 599.752
25.4116 595.391 29.7703 610.278 29.7703 625.163 29.7703 625.163 14.8852 625.163
0.0288828 625.132 0.0288828 620.805 4.35868 620.802 4.35868Z"
fill="#DA291C" transform="matrix(1 0 0 1.00226 1.194e-13
690.065)"/><path d="M596.703 8.76462C595.86 10.6315 595.391
12.7032 595.391 14.8852 595.391 18.9944 597.058 22.715 599.752 25.409L604.11
21.0503 610.276 14.8852 620.802 4.35868C618.305 1.86425 614.923 0.252068
611.168 0.0288828L609.385 0.0288828C605.628 0.252068 602.249 1.86425 599.749
4.35868 598.486 5.62165 597.446 7.11305 596.701 8.76462Z"
fill="#0C2340" transform="matrix(1 0 0 1.00226 1.194e-13
690.065)"/><path d="M610.278 0C609.979 0 609.682 0.0105028
609.388 0.0288828L611.171 0.0288828C610.877 0.0105028 610.58 0 610.281 0Z"
fill="#0C2340" transform="matrix(1 0 0 1.00226 1.194e-13
690.065)"/><path d="M599.752 25.409C597.058 22.715 595.391
18.9944 595.391 14.8852L595.391 29.7703 599.752 25.4116 599.752 25.4116Z"
fill="#546579" transform="matrix(1 0 0 1.00226 1.194e-13
690.065)"/><path d="M596.703 8.76462C597.449 7.11305 598.489
5.62165 599.752 4.35868 602.249 1.86425 605.631 0.252068 609.388
0.0288828L595.391 0.0288828 595.391 14.8852C595.391 12.7032 595.86 10.6315
596.703 8.76462Z" fill="#546579" transform="matrix(1 0 0
1.00226 1.194e-13 690.065)"/><path d="M620.805 4.35868 625.132
0.0288828 611.168 0.0288828C614.923 0.252068 618.305 1.86425 620.802
4.35868L620.805 4.35868Z" fill="#546579"
transform="matrix(1 0 0 1.00226 1.194e-13 690.065)"/><path
d="M565.62 29.7703 565.62 29.8018 565.652 29.8018 565.62 29.7703Z"
fill="#9DA7B3" transform="matrix(1 0 0 1.00226 1.194e-13
690.065)"/><path d="M580.505 14.8852 586.67 21.0503 591.032
25.4116 595.391 29.7703 595.391 14.8852 595.391 0.0288828 565.649 0.0288828
569.979 4.35868 580.505 14.8852Z" fill="#9DA7B3"
transform="matrix(1 0 0 1.00226 1.194e-13 690.065)"/><path
d="M565.62 14.8852 565.62 29.7703 580.505 29.7703 595.391 29.7703 591.032
25.4116 586.67 21.0503 580.505 14.8852 569.979 4.35868 565.649 0.0288828 565.62
0.0288828 565.62 14.8852Z" fill="#DADEE2"
transform="matrix(1 0 0 1.00226 1.194e-13 690.065)"/><path
d="M565.649 0.0288828 565.62 0 565.62 0.0288828 565.649 0.0288828Z"
fill="#DADEE2" transform="matrix(1 0 0 1.00226 1.194e-13
690.065)"/><path d="M565.62 0.0288828 565.62 0 565.617 0
550.732 0 535.85 0 535.879 0.0288828 565.62 0.0288828Z"
fill="#DA291C" transform="matrix(1 0 0 1.00226 1.194e-13
690.065)"/><path d="M565.62 0.0288828 535.879 0.0288828 540.206
4.35868 550.732 14.8852 561.261 25.4116 565.62 29.7703 565.62 14.8852 565.62
0.0288828Z" fill="#DA291C" transform="matrix(1 0 0 1.00226
1.194e-13 690.065)"/><path d="M535.879 0.0288828 535.85 0 535.847
0C535.847 0 535.847 0.01838 535.847 0.0288828L535.879 0.0288828Z"
fill="#FFFFFF" transform="matrix(1 0 0 1.00226 1.194e-13
690.065)"/><path d="M520.043 29.8018C520.348 29.7834 520.652
29.7703 520.962 29.7703 521.272 29.7703 521.571 29.7834 521.873 29.8018L565.589
29.8018 565.62 29.7703 561.261 25.4116 550.732 14.8852 540.206 4.35868 535.879
0.0288828 535.847 0.0288828C535.845 3.06946 535.385 6.00238 534.534 8.76462
533.093 13.4594 530.517 17.6605 527.127 21.0503 523.737 24.4401 519.536 27.0159
514.842 28.4575 512.071 29.3108 509.128 29.7703 506.077 29.7703L506.077
29.7703C506.077 29.7703 506.106 29.8018 506.106 29.8018L520.043 29.8018Z"
fill="#FFFFFF" transform="matrix(1 0 0 1.00226 1.194e-13
690.065)"/><path d="M520.043 29.8018 521.873 29.8018C521.571 29.7834
521.269 29.7703 520.962 29.7703 520.655 29.7703 520.348 29.7834 520.043
29.8018Z" fill="#DADEE2" transform="matrix(1 0 0 1.00226
1.194e-13 690.065)"/><path d="M506.077 29.7729 506.077 29.8018
506.106 29.8018 506.077 29.7729Z" fill="#0C2340"
transform="matrix(1 0 0 1.00226 1.194e-13 690.065)"/><path
d="M535.847 0 535.818 0.0288828 535.847 0.0288828C535.847 0.0288828
535.847 0.0105028 535.847 0Z" fill="#DA291C"
transform="matrix(1 0 0 1.00226 1.194e-13 690.065)"/><path
d="M527.127 21.0503C530.517 17.6605 533.093 13.4594 534.534 8.76462
535.385 6.00238 535.845 3.06946 535.847 0.0288828L535.818 0.0288828 531.489
4.35868 520.962 14.8852 510.436 25.4116 506.077 29.7703C509.128 29.7703 512.071
29.3108 514.842 28.4575 519.536 27.0159 523.737 24.4401 527.127 21.0503Z"
fill="#DA291C" transform="matrix(1 0 0 1.00226 1.194e-13
690.065)"/><path d="M506.048 29.8018 506.077 29.8018 506.077
29.7729 506.048 29.8018Z" fill="#DA291C"
transform="matrix(1 0 0 1.00226 1.194e-13 690.065)"/><path
d="M506.077 0.0288828 506.077 0 476.304 0C476.304 0 476.304 0.01838
476.304 0.0288828L506.077 0.0288828Z" fill="#9DA7B3"
transform="matrix(1 0 0 1.00226 1.194e-13 690.065)"/><path
d="M520.962 14.8852 531.489 4.35868 535.818 0.0288828 506.305 0.0288828
506.206 0.12866 506.077 0.259945 506.077 0.0288828 476.304 0.0288828C476.307
3.06946 476.766 6.00238 477.617 8.76462 479.092 13.5644 481.75 17.847 485.25
21.2709 488.598 24.553 492.717 27.0448 497.31 28.4575 500.08 29.3108 503.023
29.7703 506.074 29.7703L506.077 29.7703 510.436 25.4116 520.962 14.8852Z"
fill="#9DA7B3" transform="matrix(1 0 0 1.00226 1.194e-13
690.065)"/><path d="M491.189 29.7703 506.074 29.7703C503.023
29.7703 500.08 29.3108 497.31 28.4575 492.717 27.0448 488.598 24.553 485.25
21.2709 481.75 17.847 479.092 13.5644 477.617 8.76462 476.766 6.00238 476.307
3.06946 476.304 0.0288828L476.304 0.0288828 476.304 29.7703 491.189
29.7703Z" fill="#546579" transform="matrix(1 0 0 1.00226
1.194e-13 690.065)"/><path d="M1131.11 0.0157543 1126.78
4.34555C1129.47 7.03953 1131.14 10.7602 1131.14 14.872L1131.14 0.0157543
1131.11 0.0157543Z" fill="#0C2340" transform="matrix(1 0 0
1.00226 1.194e-13 690.065)"/><path d="M1250.23 29.7572 1250.26
29.7861 1280 29.7861 1280 29.7572 1265.11 29.7572 1250.23 29.7572Z"
fill="#0C2340" transform="matrix(1 0 0 1.00226 1.194e-13
690.065)"/><path d="M1220.46 29.7572 1205.57 29.7572 1190.69
29.7572 1190.72 29.7861 1220.46 29.7861 1220.46 29.7572Z"
fill="#0C2340" transform="matrix(1 0 0 1.00226 1.194e-13
690.065)"/><path d="M1071.6 29.7861C1071.6 29.7861 1071.6
29.7651 1071.6 29.7572 1071.6 26.7061 1071.14 23.7627 1070.28 20.9926 1068.84
16.2952 1066.27 12.094 1062.88 8.70686 1059.49 5.31706 1055.29 2.74124 1050.59
1.2971 1048.22 0.567154 1045.72 0.126034 1043.13 0.0157543L1041.83 0.0157543
1041.83 29.7572 1041.86 29.7861 1071.59 29.7861Z" fill="#0C2340"
transform="matrix(1 0 0 1.00226 1.194e-13 690.065)"/><path
d="M982.313 29.7861 982.284 29.7572 982.281 29.7572 977.922 25.3985
977.922 25.3985C977.922 25.3985 967.399 14.872 967.399 14.872L961.231
8.70423C957.841 12.094 955.265 16.2952 953.824 20.9926 952.97 23.7627 952.511
26.7061 952.511 29.7572 952.511 29.7677 952.511 29.7782 952.511 29.7861L982.313
29.7861Z" fill="#0C2340" transform="matrix(1 0 0 1.00226
1.194e-13 690.065)"/><path d="M1190.69 29.7572 1195.05 25.3985
1205.57 14.872 1216.1 4.34555 1220.43 0.0157543 1190.69 0.0157543 1190.69
14.872 1190.69 29.7572Z" fill="#0C2340" transform="matrix(1
0 0 1.00226 1.194e-13 690.065)"/><path d="M1235.34 14.872
1245.87 25.3985 1250.23 29.7572C1250.23 26.7061 1250.69 23.7627 1251.54 20.9926
1252.98 16.2952 1255.56 12.094 1258.95 8.70686 1262.33 5.31706 1266.54 2.74124
1271.24 1.2971 1273.61 0.567154 1276.11 0.126034 1278.69 0.0157543L1220.49
0.0157543 1224.82 4.34555 1235.34 14.872Z" fill="#0C2340" transform="matrix(1
0 0 1.00226 1.194e-13 690.065)"/><path d="M1189.37
20.9926C1187.93 16.2952 1185.36 12.094 1181.97 8.70423 1178.58 5.31444 1174.38
2.73862 1169.68 1.2971 1167.3 0.567154 1164.8 0.126034 1162.22
0.0157543L1160.91 0.0157543 1160.91 29.7887 1190.69 29.7887C1190.69 29.7887
1190.69 29.7677 1190.69 29.7598 1190.69 26.7087 1190.23 23.7653 1189.37
20.9952Z" fill="#0C2340" transform="matrix(1 0 0 1.00226
1.194e-13 690.065)"/><path d="M1131.14 29.7572 1131.14 29.7572
1131.14 14.872C1131.14 17.054 1130.67 19.1257 1129.83 20.9926 1129.08 22.6441
1128.04 24.1355 1126.78 25.3985 1124.09 28.0899 1120.37 29.7572 1116.26 29.7572
1112.14 29.7572 1108.42 28.0899 1105.73 25.3985L1101.37 29.7572 1101.4 29.7861
1131.14 29.7861 1131.14 29.7572Z" fill="#0C2340"
transform="matrix(1 0 0 1.00226 1.194e-13 690.065)"/><path
d="M1275.64 4.34555 1265.11 14.872 1254.59 25.3985 1250.23 29.7572 1265.11
29.7572 1280 29.7572 1280 14.872 1280 0.0157543 1279.97 0.0157543 1275.64
4.34555Z" fill="#9DA7B3" transform="matrix(1 0 0 1.00226
1.194e-13 690.065)"/><path d="M1258.95 8.70686C1255.56 12.094
1252.98 16.2952 1251.54 20.9926 1250.69 23.7627 1250.23 26.7061 1250.23
29.7572L1254.59 25.3985 1265.11 14.872 1275.64 4.34555 1279.97 0.0157543
1278.69 0.0157543C1276.11 0.12866 1273.61 0.567154 1271.23 1.2971 1266.54
2.74124 1262.33 5.31706 1258.95 8.70686Z" fill="#546579"
transform="matrix(1 0 0 1.00226 1.194e-13 690.065)"/><path
d="M1250.26 29.7861 1250.23 29.7572 1250.23 29.7861 1250.26 29.7861Z"
fill="#546579" transform="matrix(1 0 0 1.00226 1.194e-13
690.065)"/><path d="M1220.46 29.7572 1220.49 29.7861 1250.23
29.7861 1250.23 29.7572 1235.34 29.7572 1220.46 29.7572Z"
fill="#DA291C" transform="matrix(1 0 0 1.00226 1.194e-13
690.065)"/><path d="M1220.49 29.7861 1220.46 29.7572 1220.46
29.7861 1220.49 29.7861Z" fill="#546579"
transform="matrix(1 0 0 1.00226 1.194e-13 690.065)"/><path
d="M1220.46 14.872 1220.46 29.7572 1235.34 29.7572 1250.23 29.7572 1245.87
25.3985 1235.34 14.872 1224.82 4.34555 1220.49 0.0157543 1220.46 0.0157543
1220.46 14.872Z" fill="#DADEE2" transform="matrix(1 0 0
1.00226 1.194e-13 690.065)"/><path d="M1205.57 14.872 1195.05
25.3985 1190.69 29.7572 1205.57 29.7572 1220.46 29.7572 1220.46 14.872 1220.46
0.0157543 1220.43 0.0157543 1216.1 4.34555 1205.57 14.872Z"
fill="#FFFFFF" transform="matrix(1 0 0 1.00226 1.194e-13
690.065)"/><path d="M1190.69 29.7572C1190.69 29.7572 1190.69
29.7782 1190.69 29.7861L1190.72 29.7861 1190.69 29.7572Z"
fill="#DA291C" transform="matrix(1 0 0 1.00226 1.194e-13
690.065)"/><path d="M1181.97 8.70423C1185.36 12.094 1187.93
16.2952 1189.37 20.9926 1190.23 23.7627 1190.69 26.7061 1190.69 29.7572L1190.69
0.0157543 1162.22 0.0157543C1164.8 0.12866 1167.3 0.567154 1169.68 1.2971 1174.38
2.73862 1178.58 5.31444 1181.97 8.70423Z" fill="#DA291C"
transform="matrix(1 0 0 1.00226 1.194e-13 690.065)"/><path
d="M1146.03 29.7572 1131.14 29.7572 1131.17 29.7861 1160.91 29.7861
1160.91 29.7572 1146.03 29.7572Z" fill="#9DA7B3"
transform="matrix(1 0 0 1.00226 1.194e-13 690.065)"/><path
d="M1146.03 29.7572 1160.91 29.7572 1160.91 14.872 1160.91 0.0157543
1131.14 0.0157543 1131.14 14.872 1131.14 29.7546 1131.14 29.7572 1131.14
29.7572 1146.03 29.7572Z" fill="#DADEE2"
transform="matrix(1 0 0 1.00226 1.194e-13 690.065)"/><path
d="M1131.14 29.7572 1131.14 29.7861 1131.17 29.7861 1131.14 29.7572
1131.14 29.7572Z" fill="#DA291C" transform="matrix(1 0 0
1.00226 1.194e-13 690.065)"/><path d="M1101.37 29.7861 1101.4
29.7861 1101.37 29.7572 1101.37 29.7861Z" fill="#9DA7B3"
transform="matrix(1 0 0 1.00226 1.194e-13 690.065)"/><path
d="M1117.17 0.0157543C1120.92 0.244191 1124.29 1.85375 1126.78
4.34555L1131.11 0.0157543 1117.17 0.0157543Z" fill="#9DA7B3"
transform="matrix(1 0 0 1.00226 1.194e-13 690.065)"/><path
d="M1122.42 8.70686 1116.26 14.872 1105.73 25.3985C1108.42 28.0899 1112.14
29.7572 1116.26 29.7572 1120.37 29.7572 1124.09 28.0899 1126.78 25.3985 1128.04
24.1355 1129.08 22.6441 1129.83 20.9926 1130.67 19.1257 1131.14 17.054 1131.14
14.872 1131.14 10.7602 1129.47 7.03953 1126.78 4.34555L1122.42 8.70686Z"
fill="#DA291C" transform="matrix(1 0 0 1.00226 1.194e-13
690.065)"/><path d="M1116.26 14.872 1122.42 8.70686 1126.78
4.34555C1124.29 1.85375 1120.92 0.244191 1117.17 0.0157543L1115.33
0.0157543C1113.49 0.12866 1111.74 0.575031 1110.13 1.2971 1108.48 2.0428
1106.99 3.08258 1105.73 4.34555 1103.04 7.03953 1101.37 10.7602 1101.37 14.872
1101.37 18.9839 1103.04 22.7045 1105.73 25.3985L1116.26 14.872Z"
fill="#FFFFFF" transform="matrix(1 0 0 1.00226 1.194e-13
690.065)"/><path d="M1110.13 1.2971C1111.74 0.575031 1113.49
0.12866 1115.33 0.0157543L1101.37 0.0157543 1101.37 14.872C1101.37 10.7602
1103.04 7.03953 1105.73 4.34555 1106.99 3.08258 1108.48 2.0428 1110.13

1.2971Z" fill="#9DA7B3" transform="matrix(1 0 0 1.00226
1.194e-13 690.065)"/><path d="M1101.37 14.872 1101.37 29.7572
1105.73 25.3985C1103.04 22.7045 1101.37 18.9839 1101.37 14.872Z"
fill="#9DA7B3" transform="matrix(1 0 0 1.00226 1.194e-13
690.065)"/><path d="M1101.37 29.7572 1101.34 29.7861 1101.37
29.7861 1101.37 29.7572Z" fill="#546579"
transform="matrix(1 0 0 1.00226 1.194e-13 690.065)"/><path
d="M1101.37 14.872 1101.37 0.0157543 1071.6 0.0157543 1071.6 14.872 1071.6
29.7572 1071.6 29.7861 1101.34 29.7861 1101.37 29.7572 1101.37 14.872Z"
fill="#DA291C" transform="matrix(1 0 0 1.00226 1.194e-13
690.065)"/><path d="M1071.6 0.0157543 1043.13 0.0157543C1045.72
0.12866 1048.22 0.567154 1050.59 1.2971 1055.29 2.74124 1059.49 5.31706 1062.88
8.70686 1066.27 12.094 1068.84 16.2952 1070.28 20.9926 1071.14 23.7627 1071.6
26.7061 1071.6 29.7572L1071.6 0.0157543Z" fill="#9DA7B3" transform="matrix(1
0 0 1.00226 1.194e-13 690.065)"/><path d="M1041.83 29.7572
1041.83 29.7861 1041.86 29.7861 1041.83 29.7572Z" fill="#546579"
transform="matrix(1 0 0 1.00226 1.194e-13 690.065)"/><path
d="M1026.94 14.872 1037.47 4.34555 1037.47 4.34555 1041.8 0.0157543 1012.05
0.0157543 1012.05 14.872 1012.05 29.7572 1016.41 25.3985 1026.94 14.872Z"
fill="#FFFFFF" transform="matrix(1 0 0 1.00226 1.194e-13
690.065)"/><path d="M1041.8 29.7861 1041.83 29.7861 1041.83
29.7572 1041.8 29.7861Z" fill="#DA291C" transform="matrix(1
0 0 1.00226 1.194e-13 690.065)"/><path d="M1041.83 29.7572
1041.83 0.0157543 1041.8 0.0157543 1037.47 4.34555 1037.47 4.34555 1026.94
14.872 1016.41 25.3985 1012.05 29.7572C1012.05 29.7572 1012.05 29.7782 1012.05
29.7861L1041.8 29.7861 1041.83 29.7572Z" fill="#9DA7B3"
transform="matrix(1 0 0 1.00226 1.194e-13 690.065)"/><path
d="M1012.05 29.7572C1012.05 26.7061 1011.59 23.7627 1010.74 20.9926 1009.3
16.2952 1006.72 12.094 1003.33 8.70423 999.944 5.31444 995.743 2.73862 991.048
1.2971 988.675 0.567154 986.175 0.126034 983.589 0.0157543L980.974 0.0157543C978.387
0.12866 975.887 0.567154 973.514 1.2971 968.816 2.74124 964.615 5.31706 961.228
8.70423L967.396 14.872 977.92 25.3959 977.92 25.3959C977.92 25.3959 982.278
29.7572 982.278 29.7572L982.281 29.7572 982.31 29.7861 1012.05 29.7861C1012.05
29.7861 1012.05 29.7651 1012.05 29.7572Z" fill="#546579"
transform="matrix(1 0 0 1.00226 1.194e-13 690.065)"/><path
d="M1012.05 0.0157543 983.589 0.0157543C986.175 0.12866 988.675 0.567154
991.048 1.2971 995.743 2.73862 999.944 5.31444 1003.33 8.70423 1006.72 12.094
1009.3 16.2952 1010.74 20.9926 1011.59 23.7627 1012.05 26.7061 1012.05
29.7572L1012.05 0.0157543Z" fill="#9DA7B3"
transform="matrix(1 0 0 1.00226 1.194e-13 690.065)"/><path
d="M980.976 0.0157543 952.542 0.0157543 956.869 4.34555 956.872 4.34555
961.231 8.70423C964.618 5.31706 968.819 2.74124 973.516 1.2971 975.89 0.567154
978.39 0.126034 980.976 0.0157543Z" fill="#9DA7B3"
transform="matrix(1 0 0 1.00226 1.194e-13 690.065)"/><path d="M961.231
8.70423 956.872 4.34555 956.869 4.34555 952.542 0.0157543 952.511 0.0157543
952.511 29.7572C952.511 26.7061 952.97 23.7627 953.824 20.9926 955.265 16.2952
957.841 12.094 961.231 8.70423Z" fill="#546579"
transform="matrix(1 0 0 1.00226 1.194e-13
690.065)"/></g></svg>
